<?xml version="1.0"?>
<svg xmlns="http://www.w3.org/2000/svg" xmlns:xlink="http://www.w3.org/1999/xlink" xmlns:svgjs="http://svgjs.com/svgjs" version="1.1" width="512" height="512" x="0" y="0" viewBox="0 0 512 512" style="enable-background:new 0 0 512 512" xml:space="preserve" class=""><g transform="matrix(-1,1.2246467991473532e-16,-1.2246467991473532e-16,-1,512.0004119873047,512.0006318092346)">
<path xmlns="http://www.w3.org/2000/svg" style="" d="M263.169,3.051c-2.015-1.976-4.73-3.073-7.552-3.051l0,0c-2.834,0.001-5.551,1.129-7.552,3.136  L35.286,216.555c-4.112,4.218-4.026,10.972,0.192,15.084c1.971,1.921,4.608,3.006,7.36,3.028h117.333v266.667  c0,5.891,4.776,10.667,10.667,10.667h170.667c5.891,0,10.667-4.776,10.667-10.667V234.667h116.885  c5.891,0.011,10.675-4.757,10.686-10.648c0.005-2.84-1.123-5.565-3.134-7.571L263.169,3.051z" fill="#db2a2a" data-original="#ffc107" class=""/>
</g></svg>
