<?xml version="1.0"?>
<svg xmlns="http://www.w3.org/2000/svg" xmlns:xlink="http://www.w3.org/1999/xlink" xmlns:svgjs="http://svgjs.com/svgjs" version="1.1" width="512" height="512" x="0" y="0" viewBox="0 0 560.792 560.793" style="enable-background:new 0 0 512 512" xml:space="preserve"><g>
<g xmlns="http://www.w3.org/2000/svg">
	<g>
		<path d="M146.734,331.121c10.887,10.888,19.707,7.234,19.707-8.164v-52.895h196.017c6.157,0,11.15-4.994,11.15-11.15V86.774    c0-6.157-4.993-11.151-11.15-11.151H166.441V22.729c0-15.392-8.819-19.052-19.707-8.164L8.166,153.133    c-10.888,10.888-10.888,28.532,0,39.419L146.734,331.121z" fill="#ffe406" data-original="#000000" style=""/>
		<path d="M414.062,229.67c-10.882-10.887-19.707-7.228-19.707,8.165v52.895H198.332c-6.157,0-11.15,4.994-11.15,11.15v172.138    c0,6.156,4.994,11.15,11.15,11.15h196.017v52.896c0,15.392,8.825,19.051,19.706,8.164L552.63,407.658    c10.882-10.888,10.882-28.531,0-39.419L414.062,229.67z" fill="#ffe406" data-original="#000000" style=""/>
	</g>
</g>
</g></svg>
